<svg width="8" height="14" viewBox="0 0 8 14" fill="none" xmlns="http://www.w3.org/2000/svg">
<path d="M0.631683 1.43996L0.631709 1.43994L0.627225 1.43573C0.467746 1.28622 0.449759 0.99667 0.621166 0.807592C0.712498 0.718905 0.81798 0.677578 0.94384 0.677578C1.04398 0.677578 1.16137 0.717789 1.26558 0.806046L7.36712 6.67293C7.45778 6.76493 7.5 6.87131 7.5 6.99854C7.5 7.12577 7.45778 7.23215 7.36712 7.32415L1.25855 13.1978C1.0783 13.365 0.803432 13.366 0.621068 13.1894C0.456686 13.0081 0.457828 12.7341 0.635894 12.5531L6.04141 7.35908L6.41662 6.99854L6.04141 6.638L0.631683 1.43996Z" fill="#428D26" stroke="#428D26"/>
</svg>
